# xmcd CD database file
#
# Track frame offsets:
#	150
#	19200
#	41165
#	69362
#	90827
#	108296
#	132401
#	148247
#	166427
#	192766
#	219697
#	233028
#	247866
#	263284
#	286461
#	314203
#	330121
#
# Disc length: 4721 seconds
#
# Revision: 1
# Processed by: cddbd v1.5.2PL0 Copyright (c) Steve Scherf et al.
# Submitted via: CDex 1.51
#
DISCID=ee126f11
DTITLE=Rita Falk - Griessnockerlaffäre CD03
DYEAR=2012
DGENRE=Hörbuch
TTITLE0=Griessnockerlaffäre CD03-01
TTITLE1=Griessnockerlaffäre CD03-02
TTITLE2=Griessnockerlaffäre CD03-03
TTITLE3=Griessnockerlaffäre CD03-04
TTITLE4=Griessnockerlaffäre CD03-05
TTITLE5=Griessnockerlaffäre CD03-06
TTITLE6=Griessnockerlaffäre CD03-07
TTITLE7=Griessnockerlaffäre CD03-08
TTITLE8=Griessnockerlaffäre CD03-09
TTITLE9=Griessnockerlaffäre CD03-10
TTITLE10=Griessnockerlaffäre CD03-11
TTITLE11=Griessnockerlaffäre CD03-12
TTITLE12=Griessnockerlaffäre CD03-13
TTITLE13=Griessnockerlaffäre CD03-14
TTITLE14=Griessnockerlaffäre CD03-15
TTITLE15=Griessnockerlaffäre CD03-16
TTITLE16=Griessnockerlaffäre CD03-17
EXTD=YEAR: 2012
EXTT0=
EXTT1=
EXTT2=
EXTT3=
EXTT4=
EXTT5=
EXTT6=
EXTT7=
EXTT8=
EXTT9=
EXTT10=
EXTT11=
EXTT12=
EXTT13=
EXTT14=
EXTT15=
EXTT16=
PLAYORDER=
